<svg width="32" height="32" viewBox="0 0 32 32" fill="none" xmlns="http://www.w3.org/2000/svg">
  <!-- Shield outline -->
  <path d="M16 2L28 7.5V15C28 22.5 22.5 28 16 30C9.5 28 4 22.5 4 15V7.5L16 2Z" fill="none" stroke="#0F1F3D" stroke-width="2" stroke-linejoin="round"/>
  <!-- Neural network connecting lines -->
  <line x1="16" y1="8" x2="11" y2="13" stroke="#0D9488" stroke-width="1.2" stroke-linecap="round"/>
  <line x1="16" y1="8" x2="21" y2="13" stroke="#0D9488" stroke-width="1.2" stroke-linecap="round"/>
  <line x1="11" y1="13" x2="21" y2="13" stroke="#0D9488" stroke-width="1" stroke-linecap="round"/>
  <line x1="11" y1="13" x2="13" y2="19" stroke="#0D9488" stroke-width="1.2" stroke-linecap="round"/>
  <line x1="21" y1="13" x2="19" y2="19" stroke="#0D9488" stroke-width="1.2" stroke-linecap="round"/>
  <line x1="13" y1="19" x2="19" y2="19" stroke="#0D9488" stroke-width="1" stroke-linecap="round"/>
  <line x1="11" y1="13" x2="16" y2="16" stroke="#0D9488" stroke-width="0.8" stroke-linecap="round"/>
  <line x1="21" y1="13" x2="16" y2="16" stroke="#0D9488" stroke-width="0.8" stroke-linecap="round"/>
  <line x1="16" y1="16" x2="13" y2="19" stroke="#0D9488" stroke-width="0.8" stroke-linecap="round"/>
  <line x1="16" y1="16" x2="19" y2="19" stroke="#0D9488" stroke-width="0.8" stroke-linecap="round"/>
  <line x1="13" y1="19" x2="16" y2="24" stroke="#0D9488" stroke-width="1.2" stroke-linecap="round"/>
  <line x1="19" y1="19" x2="16" y2="24" stroke="#0D9488" stroke-width="1.2" stroke-linecap="round"/>
  <!-- Neural network nodes -->
  <circle cx="16" cy="8" r="2" fill="#0D9488"/>
  <circle cx="11" cy="13" r="1.8" fill="#0D9488"/>
  <circle cx="21" cy="13" r="1.8" fill="#0D9488"/>
  <circle cx="16" cy="16" r="1.5" fill="#0D9488"/>
  <circle cx="13" cy="19" r="1.5" fill="#0D9488"/>
  <circle cx="19" cy="19" r="1.5" fill="#0D9488"/>
  <circle cx="16" cy="24" r="1.3" fill="#0D9488"/>
</svg>
